<?xml version="1.0" standalone="no"?>
<!DOCTYPE svg PUBLIC "-//W3C//DTD SVG 20010904//EN"
 "http://www.w3.org/TR/2001/REC-SVG-20010904/DTD/svg10.dtd">
<svg version="1.0" xmlns="http://www.w3.org/2000/svg"
 width="683.000000pt" height="512.000000pt" viewBox="0 0 683.000000 512.000000"
 preserveAspectRatio="xMidYMid meet">

<g transform="translate(0.000000,512.000000) scale(0.100000,-0.100000)"
fill="#000000" stroke="none">
<path d="M0 4384 c0 -487 3 -733 10 -729 6 4 10 -5 10 -20 0 -15 4 -24 10 -20
5 3 10 21 10 40 0 19 5 37 10 40 6 4 9 22 7 41 -4 31 -2 34 17 29 11 -2 15 -2
8 1 -6 3 -12 12 -12 20 0 8 -4 14 -10 14 -5 0 -10 6 -10 13 0 17 61 21 71 5 4
-6 9 -7 13 0 6 11 -37 62 -54 62 -5 0 -10 5 -10 10 0 17 30 11 58 -11 l26 -20
8 22 c5 13 7 28 4 35 -2 6 18 32 45 57 27 25 49 52 49 60 0 8 15 29 32 46 20
20 29 35 22 39 -18 12 -25 42 -10 42 25 0 38 30 41 89 2 64 10 85 28 74 25
-16 37 -12 27 8 -9 16 -7 19 10 19 18 0 20 -4 14 -35 -9 -51 19 -44 38 10 1 5
9 9 16 7 7 -2 12 9 13 30 0 18 3 27 6 21 7 -18 32 -16 39 2 4 8 12 15 20 15 8
0 13 9 11 23 -1 16 3 22 18 22 27 0 51 61 32 83 -10 13 -9 15 11 10 18 -5 26
-1 34 17 7 16 18 24 32 22 15 -1 22 4 24 19 2 16 8 20 21 17 10 -3 22 0 25 6
4 6 0 11 -8 11 -23 0 -20 27 4 33 13 3 25 -2 34 -14 13 -19 14 -19 21 3 l7 23
9 -25 c8 -23 8 -22 5 8 -2 31 8 39 46 33 4 0 12 8 18 19 6 11 21 20 33 20 21
1 21 1 3 15 -18 14 -18 15 -1 22 11 4 20 2 23 -5 6 -18 21 -14 54 13 23 20 26
26 14 31 -8 3 -20 2 -27 -2 -7 -4 -10 -2 -7 7 3 8 15 13 26 11 12 -2 22 2 22
7 0 6 -10 11 -22 12 -22 1 -22 1 2 8 42 13 915 21 2968 27 1449 5 1962 4 1962
-5 0 -6 -11 -11 -25 -11 -25 0 -36 -19 -12 -21 6 -1 1 -5 -13 -9 -22 -7 -23
-8 -4 -9 12 -1 28 -8 35 -17 15 -18 58 -38 75 -35 6 0 17 -6 24 -14 16 -20 30
-19 46 3 7 9 14 12 14 5 0 -6 -4 -15 -10 -18 -16 -10 -12 -25 5 -19 8 4 15 1
15 -5 0 -6 18 -14 41 -17 22 -4 36 -10 31 -13 -5 -3 -11 -15 -14 -26 -3 -11
-9 -28 -13 -37 -5 -13 -2 -18 10 -18 12 0 15 5 11 16 -8 22 16 55 33 45 11 -7
11 -13 -1 -32 -8 -13 -13 -31 -12 -39 1 -8 2 -21 3 -28 1 -8 9 -10 26 -6 20 5
25 2 26 -12 0 -11 3 -14 6 -6 8 20 25 14 18 -7 -8 -27 13 -37 30 -15 14 18 14
18 15 1 0 -11 10 -20 30 -23 17 -4 31 -10 31 -15 1 -5 2 -13 3 -18 0 -5 5 -13
9 -17 4 -5 -2 -16 -15 -25 -28 -22 -17 -36 17 -21 22 10 25 9 31 -14 5 -18 11
-23 25 -19 16 5 19 1 19 -24 0 -23 5 -31 18 -31 9 0 26 -7 36 -15 16 -12 17
-17 6 -30 -10 -12 -10 -18 0 -30 6 -8 9 -19 6 -24 -4 -5 -2 -12 3 -15 10 -7
25 60 16 74 -3 6 6 15 20 20 33 12 35 12 35 0 0 -5 -7 -10 -16 -10 -11 0 -15
-6 -11 -20 3 -10 1 -20 -5 -22 -17 -6 3 -58 22 -58 10 0 20 -7 24 -15 3 -8 1
-15 -5 -15 -6 0 -7 -5 -4 -10 5 -8 11 -8 20 0 15 13 28 -1 20 -22 -4 -11 3
-13 32 -10 21 2 35 1 31 -3 -4 -5 -3 -14 3 -22 9 -10 8 -13 -5 -13 -20 0 -11
-56 15 -84 10 -10 16 -23 13 -28 -3 -4 -2 -17 1 -28 5 -16 10 -18 26 -10 11 6
19 7 19 1 0 -5 -7 -11 -15 -15 -8 -3 -15 -10 -15 -16 0 -5 7 -10 15 -10 20 0
19 -20 -2 -36 -17 -12 -17 -13 -1 -14 9 0 20 5 24 11 5 8 9 8 14 -1 27 -44 30
16 30 636 l0 634 -3415 0 -3415 0 0 -736z m6037 490 c-3 -3 -12 -4 -19 -1 -8
3 -5 6 6 6 11 1 17 -2 13 -5z m-5160 -20 c-3 -3 -12 -4 -19 -1 -8 3 -5 6 6 6
11 1 17 -2 13 -5z m5277 -125 c-9 -15 -34 -10 -28 5 3 8 12 12 20 9 8 -3 11
-9 8 -14z m-5650 -310 c-3 -5 -10 -7 -15 -3 -5 3 -7 10 -3 15 3 5 10 7 15 3 5
-3 7 -10 3 -15z m6136 -155 c0 -2 -7 -4 -15 -4 -8 0 -15 4 -15 10 0 5 7 7 15
4 8 -4 15 -8 15 -10z m-6343 -20 c-3 -3 -12 -4 -19 -1 -8 3 -5 6 6 6 11 1 17
-2 13 -5z m23 -65 c0 -7 -7 -5 -16 7 -11 13 -17 15 -20 7 -3 -7 -13 -13 -22
-13 -13 0 -12 5 7 19 20 16 27 17 38 6 7 -8 13 -19 13 -26z m6353 4 c-7 -2
-19 -2 -25 0 -7 3 -2 5 12 5 14 0 19 -2 13 -5z m-6491 -195 c-9 -9 -15 -9 -24
0 -9 9 -7 12 12 12 19 0 21 -3 12 -12z m-22 -88 c0 -5 -4 -10 -10 -10 -5 0
-10 5 -10 10 0 6 5 10 10 10 6 0 10 -4 10 -10z"/>
<path d="M1050 4820 c0 -12 7 -20 16 -20 10 0 14 6 10 15 -3 8 -1 15 3 15 5 0
11 -5 13 -12 3 -7 7 -6 11 5 5 14 1 17 -23 17 -23 0 -30 -4 -30 -20z"/>
<path d="M3530 4668 c-30 -5 -129 -22 -220 -39 -91 -16 -201 -36 -245 -44
-141 -24 -513 -91 -560 -100 -16 -4 -79 -14 -140 -24 -60 -10 -117 -21 -125
-25 -8 -3 -49 -10 -90 -16 -103 -13 -251 -38 -269 -45 -9 -4 -38 -9 -66 -12
-27 -3 -53 -7 -58 -10 -4 -2 -44 -10 -90 -18 -45 -7 -127 -21 -182 -30 -118
-20 -133 -22 -164 -24 l-23 -1 6 -352 c3 -194 8 -675 11 -1068 3 -393 8 -879
10 -1080 3 -201 5 -474 6 -607 0 -137 4 -245 9 -248 6 -3 5 -16 0 -31 -6 -14
-10 -27 -10 -28 0 -11 170 -42 199 -37 8 1 17 -2 20 -8 4 -6 43 -13 86 -15 78
-5 135 -15 204 -35 19 -6 64 -13 100 -17 36 -3 74 -10 83 -15 9 -5 27 -9 40
-8 29 1 212 -26 303 -45 82 -17 311 -54 407 -66 38 -5 72 -11 78 -15 5 -3 44
-10 87 -15 94 -12 161 -23 268 -45 44 -9 125 -22 180 -30 55 -7 120 -18 143
-24 25 -7 86 -9 140 -7 54 3 117 5 142 5 l46 1 2 208 c2 114 7 211 12 216 6 6
320 11 767 13 417 2 791 8 832 13 58 7 79 14 100 34 52 50 52 62 49 1706 -3
1432 -4 1507 -21 1538 -38 70 2 67 -913 63 -497 -2 -824 0 -827 6 -3 5 -7 87
-8 182 -1 96 -4 182 -6 192 -5 17 -16 19 -132 18 -69 -1 -151 -6 -181 -11z
m1956 -519 c12 -10 14 -240 14 -1540 l0 -1528 -21 -15 c-17 -12 -96 -14 -472
-16 -249 -1 -605 -3 -792 -5 -226 -2 -344 0 -352 7 -9 8 -13 51 -13 154 0 162
2 167 77 162 21 -1 100 -1 176 0 l137 2 0 155 0 155 -179 0 c-99 0 -186 3
-195 6 -13 5 -16 24 -16 104 0 55 4 101 8 104 5 3 93 6 195 6 l187 2 0 154 0
154 -32 1 c-84 4 -131 5 -241 7 l-118 2 3 108 3 107 193 3 192 2 0 158 0 157
-172 -3 c-95 -1 -183 0 -195 3 -22 5 -23 10 -23 109 0 85 3 105 16 110 9 3 96
6 195 6 l179 0 0 155 0 155 -179 0 c-99 0 -186 3 -195 6 -13 5 -16 24 -16 105
0 87 2 99 19 109 12 6 93 10 195 10 l176 0 0 155 0 155 -47 1 c-27 1 -109 1
-183 1 -74 -1 -141 2 -148 7 -9 6 -14 45 -16 142 -1 74 0 142 2 151 5 22 13
22 926 26 520 2 702 0 712 -9z m-2391 -749 c4 -6 -7 -39 -23 -73 -165 -340
-248 -510 -297 -610 l-59 -118 103 -202 c56 -111 122 -240 146 -287 25 -46 52
-100 60 -120 9 -19 34 -69 55 -110 62 -120 69 -114 -127 -105 -93 4 -178 7
-190 7 -13 0 -21 3 -18 7 2 4 -2 18 -8 32 -7 13 -30 63 -51 112 -22 48 -43 87
-48 87 -4 0 -8 8 -8 19 0 17 -37 113 -78 201 -9 19 -21 53 -28 75 l-11 40 -26
-59 c-15 -32 -27 -62 -27 -67 0 -5 -4 -17 -9 -27 -27 -50 -91 -201 -91 -215 0
-10 -4 -17 -10 -17 -5 0 -10 -6 -10 -13 0 -13 -15 -50 -43 -107 -13 -25 -13
-25 -172 -27 -90 -2 -167 1 -175 7 -12 8 8 56 123 287 76 153 143 287 149 298
6 11 29 54 50 95 l38 76 -30 62 c-16 34 -30 65 -30 67 0 3 -28 62 -61 133 -34
70 -79 164 -100 210 -22 46 -57 120 -79 166 -46 95 -49 112 -17 119 41 10 302
18 313 10 6 -4 33 -62 59 -128 26 -66 53 -133 60 -150 7 -16 25 -64 40 -105
41 -114 44 -120 54 -120 5 0 13 12 19 28 42 113 106 269 113 277 5 5 9 15 9
22 0 20 88 201 102 210 28 18 323 29 333 13z m-325 -830 c0 -5 -4 -10 -10 -10
-5 0 -10 5 -10 10 0 6 5 10 10 10 6 0 10 -4 10 -10z m-250 -309 c0 -5 3 -18 6
-28 6 -16 5 -16 -9 2 -9 11 -17 15 -17 8 0 -7 -4 -13 -9 -13 -5 0 -7 9 -4 20
5 20 33 29 33 11z m3007 -123 c-3 -8 -6 -5 -6 6 -1 11 2 17 5 13 3 -3 4 -12 1
-19z m-2412 -218 c3 -6 -1 -7 -9 -4 -18 7 -21 14 -7 14 6 0 13 -4 16 -10z
m-768 -52 c-3 -8 -6 -5 -6 6 -1 11 2 17 5 13 3 -3 4 -12 1 -19z m583 -128 c0
-5 -5 -10 -11 -10 -5 0 -7 5 -4 10 3 6 8 10 11 10 2 0 4 -4 4 -10z m75 0 c3
-5 -1 -10 -10 -10 -9 0 -13 5 -10 10 3 6 8 10 10 10 2 0 7 -4 10 -10z m1431
-727 c-10 -10 -19 5 -10 18 6 11 8 11 12 0 2 -7 1 -15 -2 -18z m562 -3 c-7
-10 -13 -18 -13 -17 0 1 -7 10 -14 20 -12 15 -11 17 13 17 23 0 25 -2 14 -20z"/>
<path d="M4475 3834 c-6 -2 -9 -40 -8 -92 1 -48 2 -117 2 -155 l1 -67 327 2
328 3 3 114 c2 62 1 133 -3 157 l-6 44 -317 -1 c-174 0 -322 -2 -327 -5z"/>
<path d="M4498 3293 l-28 -4 0 -155 0 -154 314 0 c275 0 317 2 331 16 13 14
15 38 12 158 l-4 141 -299 1 c-164 1 -311 -1 -326 -3z"/>
<path d="M4476 2753 c-3 -4 -6 -75 -6 -160 l0 -153 313 0 c171 0 318 4 326 9
10 6 13 40 13 142 0 74 -1 142 -1 152 -1 16 -22 17 -320 17 -175 -1 -321 -4
-325 -7z"/>
<path d="M4474 2206 c-3 -7 -3 -77 -2 -156 l3 -145 319 2 c175 1 321 5 325 8
7 8 10 213 3 268 l-5 38 -319 -2 c-236 -1 -321 -4 -324 -13z"/>
<path d="M4477 1673 c-4 -3 -7 -73 -7 -155 l0 -148 303 0 c166 0 312 3 323 6
27 7 33 58 26 204 l-5 100 -317 0 c-174 0 -320 -3 -323 -7z m70 -50 c-3 -10
-5 -4 -5 12 0 17 2 24 5 18 2 -7 2 -21 0 -30z m-40 -225 c-3 -8 -6 -5 -6 6 -1
11 2 17 5 13 3 -3 4 -12 1 -19z"/>
<path d="M6100 4646 c0 -9 5 -16 10 -16 6 0 10 4 10 9 0 6 -4 13 -10 16 -5 3
-10 -1 -10 -9z"/>
<path d="M6205 4540 c4 -6 11 -8 16 -5 14 9 11 15 -7 15 -8 0 -12 -5 -9 -10z"/>
<path d="M6480 4300 c0 -5 5 -10 10 -10 6 0 10 5 10 10 0 6 -4 10 -10 10 -5 0
-10 -4 -10 -10z"/>
<path d="M375 4290 c-3 -5 1 -10 10 -10 9 0 13 5 10 10 -3 6 -8 10 -10 10 -2
0 -7 -4 -10 -10z"/>
<path d="M100 3790 c0 -5 5 -10 11 -10 5 0 7 5 4 10 -3 6 -8 10 -11 10 -2 0
-4 -4 -4 -10z"/>
<path d="M1 3597 c-1 -36 0 -37 16 -22 10 11 12 19 6 23 -5 4 -13 14 -16 22
-3 8 -6 -2 -6 -23z"/>
<path d="M71 3614 c0 -11 3 -14 6 -6 3 7 2 16 -1 19 -3 4 -6 -2 -5 -13z"/>
<path d="M2 3475 c0 -16 2 -22 5 -12 2 9 2 23 0 30 -3 6 -5 -1 -5 -18z"/>
<path d="M3 3405 c0 -22 2 -30 4 -17 2 12 2 30 0 40 -3 9 -5 -1 -4 -23z"/>
<path d="M2 3310 c0 -14 2 -19 5 -12 2 6 2 18 0 25 -3 6 -5 1 -5 -13z"/>
<path d="M2 3090 c0 -14 2 -19 5 -12 2 6 2 18 0 25 -3 6 -5 1 -5 -13z"/>
<path d="M1 2944 c0 -11 3 -14 6 -6 3 7 2 16 -1 19 -3 4 -6 -2 -5 -13z"/>
<path d="M0 1437 l0 -1437 3415 0 3415 0 -2 468 -3 467 -40 3 c-28 2 -48 12
-65 30 -36 38 -60 56 -60 45 0 -5 25 -36 55 -69 48 -52 55 -64 55 -101 0 -24
-4 -43 -10 -43 -5 0 -10 -13 -10 -30 0 -33 -11 -38 -30 -15 -7 8 -18 15 -24
15 -6 0 -19 9 -29 20 -24 28 -41 16 -21 -15 16 -25 11 -95 -8 -95 -5 0 -7 -3
-5 -8 3 -4 -1 -20 -8 -37 -9 -21 -14 -25 -14 -11 -1 12 -6 16 -16 12 -9 -3
-15 0 -15 10 0 12 -36 34 -56 34 -15 0 2 -32 39 -72 37 -41 40 -48 23 -50 -11
-2 -21 -9 -24 -16 -3 -11 0 -12 16 -3 39 21 45 4 10 -29 -16 -15 -24 -17 -30
-8 -5 9 -8 8 -8 -4 0 -10 -2 -18 -5 -18 -15 0 -83 38 -97 55 -13 16 -19 17
-29 8 -10 -10 -9 -17 5 -32 14 -15 16 -27 11 -48 -5 -15 -8 -47 -8 -70 l1 -42
-49 26 c-27 15 -49 33 -49 41 0 7 -4 10 -10 7 -6 -3 -10 -20 -10 -37 0 -17 3
-28 7 -25 7 8 43 -21 43 -35 0 -4 -7 -8 -15 -8 -16 0 -16 -1 -20 -37 -2 -18 3
-23 19 -23 17 0 18 2 6 10 -8 5 -11 12 -8 16 10 10 40 -4 33 -15 -9 -15 16
-25 57 -22 22 1 38 -2 38 -8 0 -7 -39 -11 -114 -11 -99 0 -114 2 -112 16 1 17
-62 60 -72 50 -3 -3 7 -17 23 -31 15 -15 26 -28 24 -30 -20 -19 -5688 -53
-5734 -35 -11 5 -15 9 -8 9 6 1 19 8 28 18 14 13 18 14 25 2 14 -21 23 -3 10
20 -13 24 -30 28 -30 6 0 -19 -26 -20 -34 0 -3 8 -12 12 -20 9 -20 -8 -29 28
-18 68 8 30 6 38 -23 71 -18 20 -37 37 -42 37 -6 0 -13 8 -16 19 -9 37 79 12
115 -33 9 -11 20 -18 23 -14 10 9 -14 42 -46 64 -16 10 -29 27 -29 36 0 9 -6
19 -12 21 -10 4 -10 6 0 6 7 1 11 5 7 11 -3 5 -12 7 -20 3 -9 -3 -32 11 -57
36 -24 23 -46 41 -50 41 -5 0 -8 9 -8 20 0 11 -4 20 -9 20 -13 0 -68 52 -80
77 -7 13 -18 23 -26 23 -8 0 -15 5 -15 10 0 6 -7 10 -17 10 -9 0 -13 3 -10 7
10 9 -43 63 -61 63 -8 0 -12 6 -8 15 3 8 0 14 -7 12 -9 -1 -12 30 -14 118 -1
66 -4 196 -7 289 -3 94 -8 485 -12 870 -3 386 -8 703 -10 705 -2 2 -4 -642 -4
-1432z m6806 -623 l5 -29 -16 23 c-9 12 -13 27 -10 33 9 14 15 7 21 -27z
m-6748 -9 c-3 -3 -9 2 -12 12 -6 14 -5 15 5 6 7 -7 10 -15 7 -18z m6737 -25
c3 -5 1 -10 -4 -10 -6 0 -11 5 -11 10 0 6 2 10 4 10 3 0 8 -4 11 -10z m-6700
-30 c-11 -17 5 -32 21 -19 18 15 18 2 0 -17 -22 -22 -33 -17 -38 16 -3 21 0
30 9 30 8 0 11 -4 8 -10z m62 -27 c-4 -3 -2 -12 4 -19 7 -9 4 -14 -11 -19 -12
-4 -24 -4 -27 -1 -6 6 25 46 35 46 3 0 2 -3 -1 -7z m-73 -48 c3 -8 1 -15 -4
-15 -6 0 -10 7 -10 15 0 8 2 15 4 15 2 0 6 -7 10 -15z m155 -39 c16 -17 21
-31 16 -43 -6 -16 -8 -16 -15 4 -5 12 -20 29 -34 39 -30 19 -37 51 -8 35 9 -5
28 -21 41 -35z m-69 8 c0 -8 -4 -12 -10 -9 -5 3 -10 13 -10 21 0 8 5 12 10 9
6 -3 10 -13 10 -21z m56 -61 c-7 -7 -26 7 -26 19 0 6 6 6 15 -2 9 -7 13 -15
11 -17z m74 -13 c6 -11 15 -18 20 -15 6 3 7 -1 4 -9 -5 -14 -9 -13 -30 1 -13
8 -24 22 -24 29 0 21 18 17 30 -6z m64 -46 c23 -9 20 -34 -3 -34 -22 0 -35 15
-26 30 7 12 8 12 29 4z m6101 -74 c3 -5 1 -10 -4 -10 -6 0 -11 5 -11 10 0 6 2
10 4 10 3 0 8 -4 11 -10z m-6053 -92 c-9 -9 -12 -7 -12 12 0 19 3 21 12 12 9
-9 9 -15 0 -24z m6151 -115 c6 -10 -50 -9 -60 0 -3 4 8 7 25 7 17 0 33 -3 35
-7z m-6119 -41 c3 -5 -27 -9 -65 -10 -45 -2 -68 1 -64 8 7 12 122 14 129 2z"/>
<path d="M6816 1335 c4 -8 8 -15 10 -15 2 0 4 7 4 15 0 8 -4 15 -10 15 -5 0
-7 -7 -4 -15z"/>
<path d="M100 1036 c0 -24 23 -56 40 -56 26 0 25 11 -3 38 -22 21 -37 28 -37
18z"/>
<path d="M62 985 c0 -16 2 -22 5 -12 2 9 2 23 0 30 -3 6 -5 -1 -5 -18z"/>
<path d="M6808 963 c7 -3 16 -2 19 1 4 3 -2 6 -13 5 -11 0 -14 -3 -6 -6z"/>
<path d="M6280 429 c7 -11 14 -18 17 -15 8 8 -5 36 -17 36 -7 0 -7 -6 0 -21z"/>
<path d="M503 393 c9 -2 17 -11 17 -18 0 -8 9 -19 20 -25 23 -12 24 -10 8 25
-8 18 -18 25 -37 24 -17 -1 -20 -3 -8 -6z"/>
<path d="M6273 324 c-6 -13 -7 -24 -3 -24 9 0 25 39 18 45 -2 2 -8 -7 -15 -21z"/>
<path d="M608 290 c26 -30 52 -40 52 -20 0 6 -7 10 -15 10 -8 0 -20 9 -27 20
-7 11 -18 20 -25 20 -6 0 1 -13 15 -30z"/>
<path d="M680 230 c0 -5 5 -10 10 -10 6 0 10 5 10 10 0 6 -4 10 -10 10 -5 0
-10 -4 -10 -10z"/>
</g>
</svg>
